
<svg xmlns="http://www.w3.org/2000/svg" viewBox="0 0 43.1 14.4"><defs><style>.a{fill:#f15c22;}.b{fill:#000017;}.c{fill:#4e84c4;}.d{fill:#fff;}</style></defs><title>npr-logo</title><rect class="a" width="14.4" height="14.4"/><rect class="b" x="14.4" width="14.4" height="14.4"/><rect class="c" x="28.7" width="14.4" height="14.4"/><path class="d" d="M8.7,10.9V6.7a2,2,0,0,0-.4-1.4,1.25,1.25,0,0,0-1.1-.4,2.35,2.35,0,0,0-.8.2,1.28,1.28,0,0,0-.7.5v5.3H4V3.5H5.2L5.5,4.2a2.86,2.86,0,0,1,2.1-.8,2.86,2.86,0,0,1,2.1.8,3.11,3.11,0,0,1,.8,2.2v4.5H8.7Z"/><path class="d" d="M21,4.9a2.46,2.46,0,0,1,1.7.5,3,3,0,0,1,.5,1.8A3,3,0,0,1,22.7,9a2.06,2.06,0,0,1-1.7.6,1.5,1.5,0,0,1-1.1-.4V5.4A1.39,1.39,0,0,1,21,4.9Zm0.4,6.2a3.62,3.62,0,0,0,2.7-1,3.71,3.71,0,0,0,1-2.8c0-2.6-1.2-3.9-3.5-3.9A2.27,2.27,0,0,0,20,4V3.5H18.3v10H20V10.7A2.3,2.3,0,0,0,21.4,11.1Z"/><path class="d" d="M37.8,5.2a1.69,1.69,0,0,0-1-.3,1.61,1.61,0,0,0-1.1.5,2.11,2.11,0,0,0-.5,1.3v4.2H33.5V3.5h1.7V4.2a2.24,2.24,0,0,1,1.9-.8,2.27,2.27,0,0,1,1.3.3Z"/></svg>
